<mxfile host="app.diagrams.net" modified="2024-07-10T11:36:36.698Z" agent="Mozilla/5.0 (Windows NT 10.0; Win64; x64) AppleWebKit/537.36 (KHTML, like Gecko) Chrome/126.0.0.0 Safari/537.36" version="24.6.4" etag="oMpZsYk8MAdxch2D9N4_" type="github">
  <diagram name="第 1 页" id="dGo3TxTOR-khMN3-s9Wc">
    <mxGraphModel>
      <root>
        <mxCell id="0" />
        <mxCell id="1" parent="0" />
      </root>
    </mxGraphModel>
  </diagram>
</mxfile>
